<mxfile host="app.diagrams.net" modified="2024-03-05T10:35:54.111Z" agent="Mozilla/5.0 (Windows NT 10.0; Win64; x64) AppleWebKit/537.36 (KHTML, like Gecko) Chrome/122.0.0.0 Safari/537.36" etag="cTpgQ-wa1UmPRZ6nH2fg" version="24.0.1" type="github">
  <diagram name="페이지-1" id="1n9w8f7Y8i5TspEEfncx">
    <mxGraphModel dx="954" dy="558" grid="1" gridSize="10" guides="1" tooltips="1" connect="1" arrows="1" fold="1" page="1" pageScale="1" pageWidth="827" pageHeight="1169" math="0" shadow="0">
      <root>
        <mxCell id="0" />
        <mxCell id="1" parent="0" />
        <mxCell id="L9v-eP8X7obD85AQDrIA-6" value="" style="endArrow=none;html=1;rounded=0;" edge="1" parent="1">
          <mxGeometry width="50" height="50" relative="1" as="geometry">
            <mxPoint x="260" y="354.5" as="sourcePoint" />
            <mxPoint x="360" y="354.5" as="targetPoint" />
          </mxGeometry>
        </mxCell>
        <mxCell id="L9v-eP8X7obD85AQDrIA-8" value="순서도의 기호" style="text;strokeColor=none;fillColor=none;html=1;fontSize=24;fontStyle=1;verticalAlign=middle;align=center;" vertex="1" parent="1">
          <mxGeometry x="30" y="20" width="210" height="80" as="geometry" />
        </mxCell>
        <mxCell id="L9v-eP8X7obD85AQDrIA-10" value="이름" style="strokeWidth=2;html=1;shape=mxgraph.flowchart.loop_limit;whiteSpace=wrap;" vertex="1" parent="1">
          <mxGeometry x="440" y="200" width="100" height="50" as="geometry" />
        </mxCell>
        <mxCell id="L9v-eP8X7obD85AQDrIA-11" value="미리 정의한 처리&lt;div&gt;(predefined process)&lt;/div&gt;" style="verticalLabelPosition=bottom;verticalAlign=top;html=1;shape=process;whiteSpace=wrap;rounded=1;size=0.14;arcSize=6;" vertex="1" parent="1">
          <mxGeometry x="60" y="300" width="120" height="60" as="geometry" />
        </mxCell>
        <mxCell id="L9v-eP8X7obD85AQDrIA-12" value="데이터&lt;div&gt;(data)&lt;/div&gt;" style="shape=parallelogram;html=1;strokeWidth=2;perimeter=parallelogramPerimeter;whiteSpace=wrap;rounded=1;arcSize=12;size=0.23;" vertex="1" parent="1">
          <mxGeometry x="60" y="110" width="100" height="60" as="geometry" />
        </mxCell>
        <mxCell id="L9v-eP8X7obD85AQDrIA-13" value="처리&lt;div&gt;(process)&lt;/div&gt;" style="rounded=1;whiteSpace=wrap;html=1;absoluteArcSize=1;arcSize=14;strokeWidth=2;" vertex="1" parent="1">
          <mxGeometry x="60" y="200" width="100" height="60" as="geometry" />
        </mxCell>
        <mxCell id="L9v-eP8X7obD85AQDrIA-14" value="단말&lt;div&gt;(terminator)&lt;/div&gt;" style="strokeWidth=2;html=1;shape=mxgraph.flowchart.terminator;whiteSpace=wrap;" vertex="1" parent="1">
          <mxGeometry x="250" y="194.5" width="110" height="50" as="geometry" />
        </mxCell>
        <mxCell id="L9v-eP8X7obD85AQDrIA-15" value="판단&lt;div&gt;(decision)&lt;/div&gt;" style="strokeWidth=2;html=1;shape=mxgraph.flowchart.decision;whiteSpace=wrap;" vertex="1" parent="1">
          <mxGeometry x="250" y="104.5" width="110" height="60" as="geometry" />
        </mxCell>
        <mxCell id="L9v-eP8X7obD85AQDrIA-16" value="이름" style="strokeWidth=2;html=1;shape=mxgraph.flowchart.loop_limit;whiteSpace=wrap;rotation=-180;" vertex="1" parent="1">
          <mxGeometry x="440" y="270" width="100" height="50" as="geometry" />
        </mxCell>
        <mxCell id="L9v-eP8X7obD85AQDrIA-17" value="선&lt;span style=&quot;background-color: initial;&quot;&gt;(line)&lt;/span&gt;" style="text;html=1;align=center;verticalAlign=middle;whiteSpace=wrap;rounded=0;" vertex="1" parent="1">
          <mxGeometry x="275" y="324.5" width="60" height="30" as="geometry" />
        </mxCell>
        <mxCell id="L9v-eP8X7obD85AQDrIA-20" value="" style="endArrow=none;html=1;rounded=0;entryX=0.5;entryY=1;entryDx=0;entryDy=0;entryPerimeter=0;exitX=0.5;exitY=1;exitDx=0;exitDy=0;exitPerimeter=0;" edge="1" parent="1" source="L9v-eP8X7obD85AQDrIA-16" target="L9v-eP8X7obD85AQDrIA-10">
          <mxGeometry width="50" height="50" relative="1" as="geometry">
            <mxPoint x="560" y="240" as="sourcePoint" />
            <mxPoint x="560" y="200" as="targetPoint" />
          </mxGeometry>
        </mxCell>
        <mxCell id="L9v-eP8X7obD85AQDrIA-22" value="루프 범위&lt;div&gt;(loop limit)&lt;/div&gt;" style="text;html=1;align=center;verticalAlign=middle;whiteSpace=wrap;rounded=0;" vertex="1" parent="1">
          <mxGeometry x="460" y="330" width="60" height="30" as="geometry" />
        </mxCell>
        <mxCell id="L9v-eP8X7obD85AQDrIA-24" value="이름&lt;div&gt;i : 1, 1, n&lt;/div&gt;" style="strokeWidth=2;html=1;shape=mxgraph.flowchart.loop_limit;whiteSpace=wrap;" vertex="1" parent="1">
          <mxGeometry x="590" y="155.5" width="100" height="40" as="geometry" />
        </mxCell>
        <mxCell id="L9v-eP8X7obD85AQDrIA-25" value="이름" style="strokeWidth=2;html=1;shape=mxgraph.flowchart.loop_limit;whiteSpace=wrap;rotation=-180;" vertex="1" parent="1">
          <mxGeometry x="590" y="235.5" width="100" height="44.5" as="geometry" />
        </mxCell>
        <mxCell id="L9v-eP8X7obD85AQDrIA-28" value="처리" style="rounded=1;whiteSpace=wrap;html=1;absoluteArcSize=1;arcSize=14;strokeWidth=2;" vertex="1" parent="1">
          <mxGeometry x="590" y="205.5" width="100" height="20" as="geometry" />
        </mxCell>
        <mxCell id="L9v-eP8X7obD85AQDrIA-31" value="" style="endArrow=none;html=1;rounded=0;entryX=0.5;entryY=1;entryDx=0;entryDy=0;entryPerimeter=0;exitX=0.5;exitY=0;exitDx=0;exitDy=0;" edge="1" parent="1" source="L9v-eP8X7obD85AQDrIA-28" target="L9v-eP8X7obD85AQDrIA-24">
          <mxGeometry width="50" height="50" relative="1" as="geometry">
            <mxPoint x="630" y="235.5" as="sourcePoint" />
            <mxPoint x="680" y="185.5" as="targetPoint" />
          </mxGeometry>
        </mxCell>
        <mxCell id="L9v-eP8X7obD85AQDrIA-32" value="" style="endArrow=none;html=1;rounded=0;entryX=0.5;entryY=1;entryDx=0;entryDy=0;exitX=0.5;exitY=1;exitDx=0;exitDy=0;exitPerimeter=0;" edge="1" parent="1" source="L9v-eP8X7obD85AQDrIA-25" target="L9v-eP8X7obD85AQDrIA-28">
          <mxGeometry width="50" height="50" relative="1" as="geometry">
            <mxPoint x="650" y="240.5" as="sourcePoint" />
            <mxPoint x="650" y="205.5" as="targetPoint" />
          </mxGeometry>
        </mxCell>
        <mxCell id="L9v-eP8X7obD85AQDrIA-33" value="사전 판단 반복" style="text;html=1;align=center;verticalAlign=middle;whiteSpace=wrap;rounded=0;" vertex="1" parent="1">
          <mxGeometry x="595" y="120" width="90" height="30" as="geometry" />
        </mxCell>
        <mxCell id="L9v-eP8X7obD85AQDrIA-34" value="이름" style="strokeWidth=2;html=1;shape=mxgraph.flowchart.loop_limit;whiteSpace=wrap;" vertex="1" parent="1">
          <mxGeometry x="717" y="155.5" width="100" height="40" as="geometry" />
        </mxCell>
        <mxCell id="L9v-eP8X7obD85AQDrIA-35" value="이름&lt;div&gt;i : 1, 1, n&lt;/div&gt;" style="strokeWidth=2;html=1;shape=mxgraph.flowchart.loop_limit;whiteSpace=wrap;rotation=-180;" vertex="1" parent="1">
          <mxGeometry x="717" y="235.5" width="100" height="44.5" as="geometry" />
        </mxCell>
        <mxCell id="L9v-eP8X7obD85AQDrIA-36" value="처리" style="rounded=1;whiteSpace=wrap;html=1;absoluteArcSize=1;arcSize=14;strokeWidth=2;" vertex="1" parent="1">
          <mxGeometry x="717" y="205.5" width="100" height="20" as="geometry" />
        </mxCell>
        <mxCell id="L9v-eP8X7obD85AQDrIA-37" value="" style="endArrow=none;html=1;rounded=0;entryX=0.5;entryY=1;entryDx=0;entryDy=0;entryPerimeter=0;exitX=0.5;exitY=0;exitDx=0;exitDy=0;" edge="1" source="L9v-eP8X7obD85AQDrIA-36" target="L9v-eP8X7obD85AQDrIA-34" parent="1">
          <mxGeometry width="50" height="50" relative="1" as="geometry">
            <mxPoint x="757" y="235.5" as="sourcePoint" />
            <mxPoint x="807" y="185.5" as="targetPoint" />
          </mxGeometry>
        </mxCell>
        <mxCell id="L9v-eP8X7obD85AQDrIA-38" value="" style="endArrow=none;html=1;rounded=0;entryX=0.5;entryY=1;entryDx=0;entryDy=0;exitX=0.5;exitY=1;exitDx=0;exitDy=0;exitPerimeter=0;" edge="1" source="L9v-eP8X7obD85AQDrIA-35" target="L9v-eP8X7obD85AQDrIA-36" parent="1">
          <mxGeometry width="50" height="50" relative="1" as="geometry">
            <mxPoint x="777" y="240.5" as="sourcePoint" />
            <mxPoint x="777" y="205.5" as="targetPoint" />
          </mxGeometry>
        </mxCell>
        <mxCell id="L9v-eP8X7obD85AQDrIA-39" value="사후 판단 반복" style="text;html=1;align=center;verticalAlign=middle;whiteSpace=wrap;rounded=0;" vertex="1" parent="1">
          <mxGeometry x="722" y="120" width="90" height="30" as="geometry" />
        </mxCell>
        <mxCell id="L9v-eP8X7obD85AQDrIA-40" value="이름&lt;div&gt;i : a, b, c&lt;/div&gt;" style="strokeWidth=2;html=1;shape=mxgraph.flowchart.loop_limit;whiteSpace=wrap;" vertex="1" parent="1">
          <mxGeometry x="440" y="54.5" width="100" height="50" as="geometry" />
        </mxCell>
        <mxCell id="L9v-eP8X7obD85AQDrIA-42" value="&lt;ul&gt;&lt;li&gt;i : 변수명&lt;/li&gt;&lt;li&gt;a : 초깃값&lt;/li&gt;&lt;li&gt;b : 증갓값&lt;/li&gt;&lt;li&gt;c : 종룟값&lt;/li&gt;&lt;/ul&gt;" style="text;strokeColor=none;fillColor=none;html=1;whiteSpace=wrap;verticalAlign=middle;overflow=hidden;" vertex="1" parent="1">
          <mxGeometry x="420" y="100" width="120" height="80" as="geometry" />
        </mxCell>
      </root>
    </mxGraphModel>
  </diagram>
</mxfile>
